<?xml version="1.0" encoding="utf-8"?>
<!-- Generator: Adobe Illustrator 26.5.0, SVG Export Plug-In . SVG Version: 6.00 Build 0)  -->
<svg version="1.1" id="Layer_1" xmlns="http://www.w3.org/2000/svg" xmlns:xlink="http://www.w3.org/1999/xlink" x="0px" y="0px"
	 viewBox="0 0 1080 1917.6" style="enable-background:new 0 0 1080 1917.6;" xml:space="preserve">
<style type="text/css">
	.st0{fill:#B3B3B3;}
	.st1{fill:#999999;}
	.st2{fill:none;stroke:#999999;stroke-width:69;stroke-miterlimit:10;}
	.st3{fill:none;stroke:#4D4D4D;stroke-width:16;stroke-linecap:round;stroke-linejoin:round;}
	.st4{fill:none;stroke:#FFFFFF;stroke-linecap:round;stroke-linejoin:round;}
	.st5{fill:none;stroke:#FFFFFF;stroke-linecap:round;stroke-linejoin:round;stroke-dasharray:0,0,11.93,11.93;}
	.st6{fill:none;stroke:#FFFFFF;stroke-linecap:round;stroke-linejoin:round;stroke-dasharray:0,12;}
	.st7{enable-background:new    ;}
	.st8{fill:#F2F2F2;}
	.st9{fill:#606060;}
	.st10{fill:#666666;}
</style>
<g id="Layer_1_00000025415120526048662490000001187670521335687608_">
	<g id="background">
		<rect x="0.2" class="st0" width="1080" height="1920"/>
		<path class="st1" d="M700.8,1.5c-27.3,127.4-5,258.5,31.2,381.7c36.1,122.8,87.4,240.6,120.3,364.4
			c16.4,61.7,28.3,124.8,31.2,188.7c3,63.9-4.9,131.6-16,196.6c-11,64.6-24.6,128.7-31.7,193.9c-6.9,64-5.8,128.1,4.2,191.8
			c19.6,125,68.7,243,120.6,357.5c6.4,14,12.8,28,19.2,42c0.3,0.7,16.5,0.4,14.6,0.3c11.8,0.1,23.6,0.2,35.4,0.2
			c11.8,0,23.6,0,35.4-0.2c1.6,0,14.4-0.9,14.6-0.3c-52.5-114.2-104.7-230.1-131.3-353.6c-13.4-62.1-19.7-125.7-16.6-189.2
			c3.2-65.5,15.3-130.1,27.1-194.4s23.2-129.1,25-194.6c1.8-64.8-6.3-129.4-20.4-192.5c-27.9-125-78.2-243.1-117.5-364.6
			c-39.4-122-69.3-251.9-53.3-380.7c2-15.7,4.6-31.3,8-46.8c-0.2,0.9-46.1-0.5-50-0.5c-11.8,0-23.6,0-35.4,0.1
			C713.9,1.2,701,0.8,700.8,1.5L700.8,1.5L700.8,1.5z"/>
		<path class="st2" d="M784.4,469.8c-55.3,17.4-140.7,34.5-229.4,4C437,433.3,406.6,340.9,288.1,267.2
			C230.9,231.7,139.2,191.8,0,193.7"/>
	</g>
	<g id="road">
		<g>
			<g>
				<line class="st3" x1="518.1" y1="1461.8" x2="568.7" y2="1543.7"/>
				<line class="st3" x1="570.1" y1="1547.2" x2="638.1" y2="1801.3"/>
			</g>
			<line class="st3" x1="383.2" y1="71" x2="37.5" y2="1585.4"/>
			<line class="st3" x1="9.2" y1="343.7" x2="743.4" y2="648"/>
			<line class="st3" x1="568.7" y1="584.1" x2="263.1" y2="1894"/>
			<line class="st3" x1="31.6" y1="637.7" x2="688.3" y2="882.5"/>
			<line class="st3" x1="460.8" y1="1016.8" x2="326" y2="979"/>
			<line class="st3" x1="325.5" y1="979" x2="47.3" y2="1023.7"/>
			<line class="st3" x1="636" y1="1306.7" x2="18" y2="1133.8"/>
			<line class="st3" x1="743.4" y1="647.6" x2="660.5" y2="1026.7"/>
			<line class="st3" x1="47.3" y1="1024.7" x2="18" y2="1133.8"/>
			<line class="st3" x1="479.8" y1="966.1" x2="659" y2="1025.6"/>
			<path class="st3" d="M1002.2,900.6C945.8,1158,783,1339.8,638.1,1307.1"/>
			<line class="st3" x1="55.6" y1="1335.8" x2="593.1" y2="1476.2"/>
			<line class="st3" x1="505.2" y1="1672.7" x2="574.9" y2="1863.2"/>
			<line class="st3" x1="552.4" y1="1894.7" x2="829.4" y2="1597.7"/>
			<line class="st3" x1="504.8" y1="1672.2" x2="262.1" y2="1894"/>
			<line class="st3" x1="538.4" y1="1782.9" x2="406.6" y2="1895"/>
		</g>
		<g>
			<g>
				<line class="st4" x1="383.3" y1="71.3" x2="382" y2="77.1"/>
				<line class="st5" x1="379.4" y1="88.8" x2="40.4" y2="1571"/>
				<line class="st4" x1="39" y1="1576.8" x2="37.7" y2="1582.7"/>
			</g>
			<line class="st6" x1="743.6" y1="644.9" x2="9.4" y2="341.2"/>
			<line class="st6" x1="723.9" y1="733.8" x2="743.6" y2="644.9"/>
			<line class="st6" x1="700.3" y1="840.1" x2="723.9" y2="733.8"/>
			<line class="st6" x1="695.3" y1="862.7" x2="700.3" y2="840.1"/>
			<line class="st6" x1="659.7" y1="1023" x2="662.6" y2="1009.6"/>
			<line class="st6" x1="406.3" y1="774.4" x2="689" y2="880.1"/>
			<line class="st6" x1="31.8" y1="635" x2="314.5" y2="740.6"/>
			<path class="st6" d="M1002.8,898.3c-56.4,257.4-219.2,439.2-364.1,406.4"/>
			<line class="st6" x1="308.9" y1="1693.7" x2="262.8" y2="1890.8"/>
			<line class="st6" x1="326.8" y1="1617.1" x2="308.9" y2="1693.7"/>
			<line class="st6" x1="525.9" y1="767" x2="352.6" y2="1508.7"/>
			<line class="st6" x1="569.4" y1="580.9" x2="558.1" y2="628.9"/>
			<line class="st6" x1="659.7" y1="1023" x2="480" y2="963.4"/>
			<line class="st6" x1="461.5" y1="1014" x2="325.7" y2="976.3"/>
			<line class="st6" x1="55.6" y1="1020.6" x2="47.5" y2="1022"/>
			<line class="st6" x1="325.7" y1="976.3" x2="161.4" y2="1003.3"/>
			<line class="st6" x1="18.2" y1="1131.1" x2="47.5" y2="1022"/>
			<line class="st6" x1="451.7" y1="1252.2" x2="18.2" y2="1131.1"/>
			<line class="st6" x1="587.8" y1="1290.3" x2="561.3" y2="1282.9"/>
			<line class="st6" x1="636.2" y1="1303.8" x2="587.8" y2="1290.3"/>
			<line class="st6" x1="173.2" y1="1363.8" x2="55.8" y2="1333.1"/>
			<line class="st6" x1="581.6" y1="1470.5" x2="262.8" y2="1386.7"/>
			<line class="st6" x1="671.4" y1="1764.9" x2="552.8" y2="1891.8"/>
			<line class="st6" x1="830.1" y1="1595.1" x2="750.2" y2="1680.6"/>
			<line class="st6" x1="518.6" y1="1459.1" x2="559.6" y2="1525.6"/>
			<line class="st6" x1="638.7" y1="1798.5" x2="570.3" y2="1544.5"/>
			<line class="st6" x1="575.2" y1="1860.1" x2="504.9" y2="1669.5"/>
			<line class="st6" x1="262.8" y1="1890.8" x2="504.9" y2="1669.5"/>
			<line class="st6" x1="404.1" y1="1895.3" x2="538.1" y2="1779.7"/>
			<g>
				<g class="st7">
					<path class="st8" d="M343.9,1524.5c-0.1,0.3-0.2,0.7-0.2,1.2c-0.1,0.9,0.1,1.8,0.5,2.6c0.5,0.9,1.3,1.7,2.6,2.2l0-0.1
						c-0.6-0.8-0.8-1.8-0.6-2.9c0.5-2,2.3-3,4.2-2.5c2.1,0.5,3.6,2.5,3.1,4.8c-0.5,2.3-2.7,3.3-5.6,2.6c-2.4-0.6-4-1.8-4.8-3.2
						c-0.6-1.1-0.9-2.4-0.7-3.6c0-0.6,0.1-1.1,0.2-1.4L343.9,1524.5z M350.2,1526.6c-1.4-0.3-2.6,0.3-2.9,1.6
						c-0.2,1,0.1,1.9,0.6,2.5c0.1,0.1,0.3,0.2,0.5,0.3c1.9,0.5,3.5,0.1,3.9-1.5C352.6,1528.1,351.7,1526.9,350.2,1526.6z"/>
				</g>
				<g class="st7">
					<path class="st8" d="M343.2,1539.2l-3.3-2.1l0.4-1.6l10.6,6.7l-0.4,1.8l-12.5,1.2l0.4-1.6l3.9-0.4L343.2,1539.2z M343.4,1543.3
						l3.6-0.3c0.8-0.1,1.5-0.1,2.2-0.1l0,0c-0.6-0.3-1.3-0.7-2-1.1l-3.1-1.9L343.4,1543.3z"/>
				</g>
				<g class="st7">
					<path class="st8" d="M345.7,1549.2l-5,0.5c-0.8,0.1-1.6,0.2-2.3,0.2l0,0.1c0.6,0.4,1.3,0.8,2,1.2l4.3,2.7l-0.4,1.6l-7.5-5.3
						l0.3-1.5l9-1.2L345.7,1549.2z"/>
				</g>
				<g class="st7">
					<path class="st8" d="M339.4,1556.5c-2-0.5-3.2,0.7-3.5,2.2c-0.3,1.1-0.2,1.8-0.1,2.4h-1.1c-0.1-0.6-0.2-1.6,0.1-2.9
						c0.6-2.6,2.6-3.7,5.1-3.1s4.1,2.6,3.5,5c-0.6,2.7-3.2,2.9-4.7,2.5c-0.3-0.1-0.5-0.2-0.7-0.2L339.4,1556.5z M339.4,1561.2
						c1,0.2,2.5,0.2,2.9-1.5c0.4-1.5-0.9-2.6-1.9-2.9L339.4,1561.2z"/>
					<path class="st8" d="M339.7,1564.8c0.9,0.2,1.6,0.4,2.3,0.5l-0.3,1.3l-1.4-0.2l0,0c0.7,0.6,1.2,1.8,0.9,3.1
						c-0.3,1.2-1.4,2.8-4.2,2.1l-4.9-1.2l0.4-1.5l4.8,1.2c1.3,0.3,2.6,0.1,2.9-1.3c0.2-1-0.3-2-1.1-2.4c-0.2-0.1-0.4-0.2-0.7-0.3
						l-5-1.2l0.4-1.5L339.7,1564.8z"/>
					<path class="st8" d="M332.1,1580.5c-0.9-0.2-1.6-0.4-2.3-0.5l0.3-1.3l1.4,0.2l0,0c-0.6-0.6-1.2-1.7-0.9-3.1
						c0.3-1.3,1.4-2.7,4.3-2l4.8,1.2l-0.4,1.5l-4.6-1.1c-1.6-0.4-2.7-0.2-3.1,1.2c-0.2,1,0.3,1.9,0.9,2.3c0.2,0.1,0.5,0.3,0.7,0.3
						l5.1,1.2l-0.4,1.5L332.1,1580.5z"/>
					<path class="st8" d="M332.9,1584.3c-2-0.5-3.2,0.7-3.5,2.2c-0.3,1.1-0.2,1.8-0.1,2.4h-1.1c-0.1-0.6-0.2-1.6,0.1-2.9
						c0.6-2.6,2.6-3.7,5.1-3.1s4.1,2.6,3.5,5c-0.6,2.7-3.2,2.9-4.7,2.5c-0.3-0.1-0.5-0.2-0.7-0.2L332.9,1584.3z M332.9,1589
						c1,0.2,2.5,0.2,2.9-1.5c0.4-1.5-0.9-2.6-1.9-2.9L332.9,1589z"/>
					<path class="st8" d="M328.2,1595.1c-0.6,0.6-1.1,1.5-1.4,2.5c-0.4,1.5,0.2,2.6,1.4,2.9c1.1,0.3,1.8-0.2,2.8-1.6
						c1.1-1.7,2.4-2.7,4-2.3c1.8,0.4,2.8,2.3,2.2,4.5c-0.3,1.2-0.8,2-1.2,2.4l-1.1-0.7c0.3-0.3,0.8-1,1.1-2.1
						c0.4-1.6-0.4-2.4-1.2-2.6c-1.1-0.3-1.8,0.3-2.8,1.8c-1.2,1.8-2.4,2.6-4.1,2.2c-1.8-0.4-3-2.1-2.4-4.9c0.3-1.1,0.9-2.3,1.4-2.8
						L328.2,1595.1z"/>
					<path class="st8" d="M328.3,1610.8l1.1-4.5l-4.2-1l-1.2,5l-1.2-0.3l1.5-6.6l11.5,2.8l-1.5,6.3l-1.2-0.3l1.1-4.8l-3.6-0.9
						l-1.1,4.5L328.3,1610.8z"/>
				</g>
			</g>
			<g>
				<g class="st7">
					<path class="st8" d="M694.1,901.7l-1-0.2l-9-7.3l0.4-1.6l8.7,7.2l0,0l1.3-5.5l1.2,0.3L694.1,901.7z"/>
				</g>
				<g class="st7">
					<path class="st8" d="M684.9,907.5l-3.3-2.1l0.4-1.6l10.6,6.7l-0.4,1.8l-12.5,1.2l0.4-1.6l3.9-0.4L684.9,907.5z M685.1,911.6
						l3.6-0.3c0.8-0.1,1.5-0.1,2.2-0.1l0,0c-0.6-0.3-1.3-0.7-1.9-1.1l-3.1-1.9L685.1,911.6z"/>
				</g>
				<g class="st7">
					<path class="st8" d="M687.4,917.5l-5,0.5c-0.8,0.1-1.6,0.2-2.3,0.2l0,0.1c0.6,0.4,1.3,0.8,2,1.2l4.3,2.7l-0.4,1.6l-7.5-5.3
						l0.3-1.5l9-1.2L687.4,917.5z"/>
				</g>
				<g class="st7">
					<path class="st8" d="M681.1,924.9c-2-0.5-3.2,0.7-3.5,2.2c-0.3,1.1-0.2,1.8-0.1,2.4l-1.1,0c-0.1-0.6-0.2-1.6,0.1-2.9
						c0.6-2.6,2.6-3.7,5.1-3.1c2.5,0.6,4.1,2.6,3.5,5c-0.6,2.7-3.2,2.9-4.7,2.5c-0.3-0.1-0.5-0.2-0.7-0.2L681.1,924.9z M681.1,929.6
						c1,0.2,2.5,0.2,2.9-1.5c0.4-1.5-0.9-2.6-1.9-2.9L681.1,929.6z"/>
					<path class="st8" d="M681.4,933.2c0.9,0.2,1.6,0.4,2.3,0.5l-0.3,1.3l-1.4-0.2l0,0c0.7,0.6,1.2,1.8,0.9,3.1
						c-0.3,1.2-1.4,2.8-4.2,2.1l-4.9-1.2l0.4-1.5l4.8,1.1c1.3,0.3,2.6,0.1,2.9-1.3c0.2-1-0.3-2-1.1-2.4c-0.2-0.1-0.4-0.2-0.7-0.3
						l-5-1.2l0.4-1.5L681.4,933.2z"/>
					<path class="st8" d="M673.8,948.9c-0.9-0.2-1.6-0.4-2.3-0.5l0.3-1.3l1.4,0.2l0,0c-0.6-0.6-1.2-1.6-0.9-3.1
						c0.3-1.3,1.4-2.7,4.3-2l4.8,1.2l-0.4,1.5l-4.6-1.1c-1.6-0.4-2.7-0.2-3.1,1.2c-0.2,1,0.3,1.9,0.9,2.3c0.2,0.1,0.5,0.3,0.7,0.3
						l5.1,1.2l-0.4,1.5L673.8,948.9z"/>
					<path class="st8" d="M674.6,952.7c-2-0.5-3.2,0.7-3.5,2.2c-0.3,1.1-0.2,1.8-0.1,2.4l-1.1,0c-0.1-0.6-0.2-1.6,0.1-2.9
						c0.6-2.6,2.6-3.7,5.1-3.1c2.5,0.6,4.1,2.6,3.5,5c-0.6,2.7-3.2,2.9-4.7,2.5c-0.3-0.1-0.5-0.2-0.7-0.2L674.6,952.7z M674.6,957.4
						c1,0.2,2.5,0.2,2.9-1.5c0.4-1.5-0.9-2.6-1.9-2.9L674.6,957.4z"/>
					<path class="st8" d="M669.9,963.5c-0.6,0.6-1.1,1.5-1.4,2.5c-0.4,1.5,0.2,2.6,1.4,2.9c1.1,0.3,1.8-0.2,2.8-1.6
						c1.1-1.7,2.4-2.7,4-2.3c1.8,0.4,2.8,2.3,2.3,4.5c-0.3,1.2-0.8,2-1.2,2.4l-1.1-0.7c0.3-0.3,0.8-1,1.1-2.1
						c0.4-1.6-0.4-2.4-1.2-2.6c-1.1-0.3-1.8,0.3-2.8,1.8c-1.2,1.8-2.4,2.6-4.1,2.2c-1.8-0.4-3-2.1-2.4-4.9c0.3-1.1,0.9-2.3,1.4-2.8
						L669.9,963.5z"/>
					<path class="st8" d="M670,979.2l1.1-4.5l-4.2-1l-1.2,5l-1.2-0.3l1.5-6.6l11.5,2.8l-1.5,6.3l-1.2-0.3l1.1-4.8l-3.6-0.9l-1.1,4.5
						L670,979.2z"/>
				</g>
			</g>
			<g>
				<g class="st7">
					<path class="st8" d="M547.6,659.9c1.4,0.3,2.2,1.4,2.5,2.9l0.1,0c0.9-1.1,2-1.4,2.9-1.2c1.8,0.4,2.6,2.2,2.1,4.2
						c-0.5,2.2-2.1,2.9-3.5,2.6c-0.9-0.2-1.8-0.9-2.2-2.5l-0.1,0c-0.9,1.3-2.1,1.9-3.4,1.6c-1.9-0.5-2.8-2.5-2.3-4.6
						C544.3,660.6,546,659.5,547.6,659.9z M546.3,666c1.4,0.3,2.2-0.5,3-1.9c-0.1-1.4-0.8-2.3-1.8-2.6c-1.1-0.3-2.3,0.3-2.6,1.7
						C544.5,664.6,545.2,665.7,546.3,666z M552.8,663.1c-1.1-0.3-1.9,0.4-2.6,1.7c0.1,1,0.6,2,1.6,2.2c0.9,0.2,1.9-0.1,2.3-1.5
						C554.5,664.2,553.8,663.3,552.8,663.1z"/>
				</g>
				<g class="st7">
					<path class="st8" d="M544.9,675.2l-3.3-2.1l0.4-1.6l10.6,6.7l-0.4,1.8l-12.5,1.2l0.4-1.6l3.9-0.4L544.9,675.2z M545.2,679.3
						l3.6-0.3c0.8-0.1,1.5-0.1,2.2-0.1l0,0c-0.6-0.3-1.3-0.7-1.9-1.1l-3.1-1.9L545.2,679.3z"/>
				</g>
				<g class="st7">
					<path class="st8" d="M547.5,685.2l-5,0.5c-0.8,0.1-1.6,0.2-2.3,0.2l0,0.1c0.6,0.4,1.3,0.8,2,1.2l4.3,2.7l-0.4,1.6l-7.5-5.3
						l0.3-1.5l9-1.2L547.5,685.2z"/>
				</g>
				<g class="st7">
					<path class="st8" d="M541.1,692.5c-2-0.5-3.2,0.7-3.5,2.2c-0.3,1.1-0.2,1.8-0.1,2.4l-1.1,0c-0.1-0.6-0.2-1.6,0.1-2.9
						c0.6-2.6,2.6-3.7,5.1-3.1c2.5,0.6,4.1,2.6,3.5,5c-0.6,2.7-3.2,2.9-4.7,2.5c-0.3-0.1-0.5-0.2-0.7-0.2L541.1,692.5z M541.2,697.2
						c1,0.2,2.5,0.2,2.9-1.5c0.4-1.5-0.9-2.6-1.9-2.9L541.2,697.2z"/>
					<path class="st8" d="M541.5,700.9c0.9,0.2,1.6,0.4,2.3,0.5l-0.3,1.3l-1.4-0.2l0,0c0.7,0.6,1.2,1.8,0.9,3.1
						c-0.3,1.2-1.4,2.8-4.2,2.1l-4.9-1.2l0.4-1.5l4.8,1.1c1.3,0.3,2.6,0.1,2.9-1.3c0.2-1-0.3-2-1.1-2.4c-0.2-0.1-0.4-0.2-0.7-0.3
						l-5-1.2l0.4-1.5L541.5,700.9z"/>
					<path class="st8" d="M533.8,716.6c-0.9-0.2-1.6-0.4-2.3-0.5l0.3-1.3l1.4,0.2l0,0c-0.6-0.6-1.2-1.6-0.9-3.1
						c0.3-1.3,1.4-2.7,4.3-2l4.8,1.2l-0.4,1.5l-4.6-1.1c-1.6-0.4-2.7-0.1-3.1,1.2c-0.2,1,0.3,1.9,0.9,2.3c0.2,0.1,0.5,0.3,0.7,0.3
						l5.1,1.2l-0.4,1.5L533.8,716.6z"/>
					<path class="st8" d="M534.6,720.3c-2-0.5-3.2,0.7-3.5,2.2c-0.3,1.1-0.2,1.8-0.1,2.4l-1.1,0c-0.1-0.6-0.2-1.6,0.1-2.9
						c0.6-2.6,2.6-3.7,5.1-3.1s4.1,2.6,3.5,5c-0.6,2.7-3.2,2.9-4.7,2.5c-0.3-0.1-0.5-0.2-0.7-0.2L534.6,720.3z M534.7,725
						c1,0.2,2.5,0.2,2.9-1.5c0.4-1.5-0.9-2.6-1.9-2.9L534.7,725z"/>
					<path class="st8" d="M530,731.2c-0.6,0.6-1.1,1.5-1.4,2.5c-0.4,1.5,0.2,2.6,1.4,2.9c1.1,0.3,1.8-0.2,2.8-1.6
						c1.1-1.7,2.4-2.7,4-2.3c1.8,0.4,2.8,2.3,2.2,4.5c-0.3,1.2-0.8,2-1.2,2.4l-1.1-0.7c0.3-0.3,0.8-1,1.1-2.1
						c0.4-1.6-0.4-2.4-1.2-2.6c-1.1-0.3-1.8,0.3-2.8,1.8c-1.2,1.8-2.4,2.6-4.1,2.2c-1.8-0.4-3-2.1-2.4-4.9c0.3-1.1,0.9-2.3,1.4-2.8
						L530,731.2z"/>
					<path class="st8" d="M530.1,746.8l1.1-4.5l-4.2-1l-1.2,5l-1.2-0.3l1.5-6.6l11.5,2.8l-1.5,6.3l-1.2-0.3l1.1-4.8l-3.6-0.9
						l-1.1,4.5L530.1,746.8z"/>
				</g>
			</g>
			<g>
				<g class="st7">
					<path class="st8" d="M320.4,746.6c0.3,0.2,0.7,0.3,1.2,0.4c0.9,0.2,1.8,0.1,2.6-0.2c0.9-0.4,1.8-1.2,2.5-2.4l0,0
						c-0.9,0.5-1.9,0.6-3,0.2c-1.9-0.7-2.6-2.7-2-4.5c0.7-2.1,2.9-3.3,5.1-2.5c2.2,0.8,2.9,3.1,1.9,5.9c-0.9,2.4-2.3,3.8-3.7,4.4
						c-1.1,0.5-2.4,0.6-3.7,0.3c-0.6-0.1-1-0.3-1.4-0.4L320.4,746.6z M323.2,740.5c-0.5,1.4,0,2.6,1.2,3.1c1,0.4,1.9,0.2,2.5-0.4
						c0.1-0.1,0.2-0.3,0.3-0.5c0.7-1.9,0.5-3.5-1-4.1C325.1,738.2,323.8,739,323.2,740.5z"/>
				</g>
				<g class="st7">
					<path class="st8" d="M332.2,750.2c0.5,0.6,1.3,1.3,2.3,1.7c1.5,0.5,2.6,0.1,3-1.1c0.4-1.1,0-1.9-1.3-3
						c-1.6-1.3-2.4-2.7-1.8-4.3c0.6-1.8,2.5-2.5,4.7-1.7c1.1,0.4,1.9,1,2.3,1.5l-0.8,1c-0.3-0.3-0.9-1-1.9-1.3
						c-1.5-0.6-2.4,0.1-2.7,0.9c-0.4,1.1,0.1,1.8,1.4,3c1.6,1.4,2.2,2.7,1.6,4.4c-0.6,1.7-2.4,2.8-5.1,1.8c-1.1-0.4-2.1-1.2-2.6-1.8
						L332.2,750.2z"/>
				</g>
				<g class="st7">
					<path class="st8" d="M345.3,745.2l-0.8,2.3l2.1,0.8l-0.4,1.1l-2.1-0.8l-1.6,4.4c-0.4,1-0.3,1.7,0.5,2c0.4,0.1,0.7,0.2,0.9,0.2
						l-0.3,1.1c-0.3,0-0.8-0.1-1.4-0.3c-0.7-0.3-1.1-0.7-1.3-1.2c-0.3-0.6-0.1-1.4,0.2-2.3l1.6-4.4l-1.2-0.5l0.4-1.1l1.2,0.5
						l0.7-1.9L345.3,745.2z"/>
				</g>
				<g class="st7">
					<path class="st8" d="M347.3,751.5c0.3-1,0.6-1.8,0.8-2.6l1.3,0.5l-0.5,1.6l0.1,0c0.8-1,1.9-1.3,2.9-1c0.2,0.1,0.3,0.1,0.4,0.2
						l-0.5,1.4c-0.1-0.1-0.3-0.2-0.5-0.2c-1-0.4-2,0.1-2.6,1.2c-0.1,0.2-0.2,0.4-0.3,0.7l-1.6,4.3l-1.4-0.5L347.3,751.5z"/>
				</g>
				<g class="st7">
					<path class="st8" d="M352.7,755.5c-0.7,2,0.3,3.3,1.7,3.8c1,0.4,1.7,0.4,2.4,0.4l-0.1,1.1c-0.6,0-1.6,0-2.8-0.5
						c-2.5-0.9-3.3-3.1-2.5-5.6c0.9-2.4,3-3.8,5.3-3c2.6,1,2.5,3.6,1.9,5.1c-0.1,0.3-0.2,0.5-0.3,0.7L352.7,755.5z M357.3,756.1
						c0.4-0.9,0.5-2.5-1.2-3.2c-1.5-0.5-2.6,0.6-3.1,1.6L357.3,756.1z"/>
					<path class="st8" d="M361,758.6c-0.7,2,0.3,3.3,1.7,3.8c1,0.4,1.7,0.4,2.4,0.4l-0.1,1.1c-0.6,0-1.6,0-2.8-0.5
						c-2.5-0.9-3.3-3.1-2.5-5.6c0.9-2.4,3-3.8,5.3-3c2.6,1,2.5,3.6,1.9,5.1c-0.1,0.3-0.2,0.5-0.3,0.7L361,758.6z M365.6,759.2
						c0.4-0.9,0.5-2.5-1.2-3.2c-1.5-0.5-2.6,0.6-3.1,1.6L365.6,759.2z"/>
					<path class="st8" d="M372.6,755.4l-0.8,2.3l2.1,0.8l-0.4,1.1l-2.1-0.8l-1.6,4.4c-0.4,1-0.3,1.7,0.5,2c0.4,0.1,0.7,0.2,0.9,0.2
						l-0.3,1.1c-0.3,0-0.8-0.1-1.4-0.3c-0.7-0.3-1.1-0.7-1.3-1.2c-0.3-0.6-0.1-1.4,0.2-2.3l1.6-4.4l-1.2-0.5l0.4-1.1l1.2,0.5
						l0.7-1.9L372.6,755.4z"/>
					<path class="st8" d="M376.5,766.7c0.5,0.6,1.3,1.3,2.3,1.7c1.5,0.5,2.6,0.1,3-1.1c0.4-1.1,0-1.9-1.3-3
						c-1.6-1.3-2.4-2.7-1.8-4.3c0.6-1.8,2.5-2.5,4.7-1.7c1.1,0.4,1.9,1,2.3,1.5l-0.8,1c-0.3-0.3-0.9-1-1.9-1.3
						c-1.5-0.6-2.4,0.1-2.7,0.9c-0.4,1.1,0.1,1.8,1.4,3c1.6,1.4,2.2,2.7,1.6,4.4c-0.6,1.7-2.4,2.8-5.1,1.8c-1.1-0.4-2.1-1.2-2.6-1.8
						L376.5,766.7z"/>
					<path class="st8" d="M391.9,768.5l-4.3-1.6l-1.5,4.1l4.8,1.8l-0.4,1.2l-6.3-2.3l4.1-11.3l6,2.2l-0.4,1.2l-4.6-1.7l-1.3,3.6
						l4.3,1.6L391.9,768.5z"/>
				</g>
			</g>
			<g>
				<g class="st7">
					<path class="st8" d="M68.5,1014.3L68.5,1014.3l-1.8,1.4l-0.5-1.1l2.2-1.7l1.3-0.2l1.8,11.5l-1.5,0.2L68.5,1014.3z"/>
					<path class="st8" d="M77.4,1012.9L77.4,1012.9l-1.8,1.4l-0.5-1.1l2.2-1.7l1.3-0.2l1.8,11.5l-1.5,0.2L77.4,1012.9z"/>
				</g>
				<g class="st7">
					<path class="st8" d="M88.2,1019.5c0.7,0.3,1.8,0.5,2.8,0.3c1.5-0.3,2.3-1.2,2.1-2.4c-0.2-1.1-0.9-1.6-2.6-2
						c-2-0.4-3.3-1.2-3.6-2.9c-0.3-1.9,1-3.5,3.3-3.8c1.2-0.2,2.1-0.1,2.7,0.2l-0.2,1.3c-0.4-0.1-1.2-0.4-2.3-0.2
						c-1.6,0.3-2,1.3-1.9,2.1c0.2,1.1,1,1.5,2.7,1.9c2.1,0.5,3.2,1.3,3.5,3c0.3,1.8-0.8,3.6-3.5,4.1c-1.1,0.2-2.4,0.1-3.1-0.3
						L88.2,1019.5z"/>
				</g>
				<g class="st7">
					<path class="st8" d="M97.2,1008.6l0.4,2.5l2.2-0.4l0.2,1.2l-2.2,0.4l0.7,4.6c0.2,1.1,0.6,1.6,1.4,1.5c0.4-0.1,0.7-0.2,0.9-0.2
						l0.3,1.2c-0.3,0.2-0.7,0.3-1.3,0.4c-0.7,0.1-1.3,0-1.7-0.4c-0.5-0.4-0.8-1.1-0.9-2.1l-0.7-4.7l-1.3,0.2l-0.2-1.2l1.3-0.2
						l-0.3-2L97.2,1008.6z"/>
				</g>
				<g class="st7">
					<path class="st8" d="M101.9,1013.1c-0.2-1-0.3-1.9-0.5-2.7l1.3-0.2l0.3,1.7l0.1,0c0.2-1.2,1-2.1,2-2.2c0.2,0,0.3,0,0.4,0
						l0.2,1.5c-0.2,0-0.3,0-0.5,0c-1.1,0.2-1.7,1.1-1.7,2.3c0,0.2,0,0.5,0,0.7l0.7,4.5l-1.5,0.2L101.9,1013.1z"/>
				</g>
				<g class="st7">
					<path class="st8" d="M108.5,1014c0.4,2.1,1.8,2.7,3.3,2.5c1.1-0.2,1.7-0.5,2.2-0.8l0.4,1.1c-0.5,0.3-1.4,0.8-2.7,1
						c-2.6,0.4-4.4-1.1-4.8-3.6s0.8-4.8,3.2-5.2c2.7-0.4,3.8,1.9,4.1,3.5c0.1,0.3,0.1,0.6,0.1,0.7L108.5,1014z M112.8,1012.1
						c-0.1-1-0.8-2.5-2.5-2.2c-1.5,0.3-2,1.8-1.9,2.9L112.8,1012.1z"/>
					<path class="st8" d="M117.2,1012.5c0.4,2.1,1.8,2.7,3.3,2.5c1.1-0.2,1.7-0.5,2.2-0.8l0.4,1.1c-0.5,0.3-1.4,0.8-2.7,1
						c-2.6,0.4-4.4-1.1-4.8-3.6s0.8-4.8,3.2-5.2c2.7-0.4,3.8,1.9,4.1,3.5c0.1,0.3,0.1,0.6,0.1,0.7L117.2,1012.5z M121.4,1010.7
						c-0.1-1-0.8-2.5-2.5-2.2c-1.5,0.3-2,1.8-1.9,2.9L121.4,1010.7z"/>
					<path class="st8" d="M125.7,1004l0.4,2.5l2.2-0.4l0.2,1.2l-2.2,0.4l0.7,4.6c0.2,1.1,0.6,1.6,1.4,1.5c0.4-0.1,0.7-0.2,0.9-0.2
						l0.3,1.2c-0.3,0.2-0.7,0.3-1.3,0.4c-0.7,0.1-1.3,0-1.7-0.4c-0.5-0.4-0.8-1.1-0.9-2.1l-0.7-4.7l-1.3,0.2l-0.2-1.2l1.3-0.2
						l-0.3-2L125.7,1004z"/>
					<path class="st8" d="M134.5,1011.9c0.7,0.3,1.8,0.5,2.8,0.3c1.5-0.3,2.3-1.2,2.1-2.4c-0.2-1.1-0.9-1.6-2.6-2
						c-2-0.4-3.3-1.2-3.6-2.9c-0.3-1.9,1-3.5,3.3-3.8c1.2-0.2,2.1-0.1,2.7,0.2l-0.2,1.3c-0.4-0.1-1.2-0.4-2.3-0.2
						c-1.6,0.3-2,1.3-1.9,2.1c0.2,1.1,1,1.5,2.7,1.9c2.1,0.5,3.2,1.3,3.5,3c0.3,1.8-0.8,3.6-3.5,4.1c-1.1,0.2-2.4,0-3.1-0.3
						L134.5,1011.9z"/>
					<path class="st8" d="M148.7,1005.7l-4.5,0.7l0.7,4.3l5-0.8l0.2,1.3l-6.5,1.1l-1.9-11.9l6.3-1l0.2,1.3l-4.8,0.8l0.6,3.8l4.5-0.7
						L148.7,1005.7z"/>
				</g>
			</g>
			<g>
				<g class="st7">
					<path class="st8" d="M467.6,1251.4L467.6,1251.4l-2.2,0.5l0-1.2l2.8-0.6l1.3,0.4l-3,11.2l-1.4-0.4L467.6,1251.4z"/>
					<path class="st8" d="M470.4,1262.7l0.3-0.9l1.5-0.8c3.6-1.9,5.2-3,5.7-4.7c0.3-1.1,0-2.3-1.6-2.8c-1-0.3-2,0-2.6,0.3l-0.2-1.2
						c0.9-0.4,2.2-0.6,3.4-0.3c2.4,0.7,2.9,2.6,2.5,4.2c-0.6,2.1-2.5,3.3-5.4,4.9l-1.1,0.6l0,0l5,1.4l-0.3,1.3L470.4,1262.7z"/>
				</g>
				<g class="st7">
					<path class="st8" d="M483.6,1264.4c0.6,0.6,1.4,1.2,2.4,1.5c1.5,0.4,2.6-0.1,2.9-1.3c0.3-1.1-0.2-1.9-1.5-2.9
						c-1.7-1.2-2.6-2.5-2.1-4.1c0.5-1.8,2.3-2.7,4.6-2.1c1.2,0.3,1.9,0.8,2.4,1.3l-0.7,1.1c-0.3-0.3-1-0.9-2-1.2
						c-1.6-0.4-2.4,0.3-2.6,1.1c-0.3,1.1,0.3,1.8,1.7,2.9c1.7,1.3,2.5,2.5,2,4.2c-0.5,1.8-2.2,3-4.9,2.2c-1.1-0.3-2.2-1-2.7-1.6
						L483.6,1264.4z"/>
				</g>
				<g class="st7">
					<path class="st8" d="M496.3,1258.4l-0.6,2.4l2.1,0.6l-0.3,1.2l-2.1-0.6l-1.2,4.5c-0.3,1-0.1,1.7,0.7,1.9
						c0.4,0.1,0.7,0.1,0.9,0.1l-0.2,1.2c-0.3,0-0.8,0-1.4-0.2c-0.7-0.2-1.2-0.6-1.4-1.1c-0.3-0.6-0.3-1.3,0-2.3l1.2-4.5l-1.3-0.4
						l0.3-1.2l1.3,0.4l0.5-2L496.3,1258.4z"/>
				</g>
				<g class="st7">
					<path class="st8" d="M498.8,1264.5c0.3-1,0.5-1.8,0.6-2.6l1.3,0.4l-0.4,1.7l0.1,0c0.7-1,1.8-1.5,2.8-1.2c0.2,0,0.3,0.1,0.4,0.2
						l-0.4,1.4c-0.1-0.1-0.3-0.1-0.5-0.2c-1.1-0.3-2,0.3-2.5,1.4c-0.1,0.2-0.2,0.4-0.3,0.7l-1.2,4.4l-1.5-0.4L498.8,1264.5z"/>
				</g>
				<g class="st7">
					<path class="st8" d="M504.5,1268c-0.5,2.1,0.5,3.3,2,3.7c1.1,0.3,1.8,0.3,2.4,0.2l0,1.2c-0.6,0.1-1.6,0.1-2.9-0.2
						c-2.5-0.7-3.6-2.8-2.9-5.3c0.7-2.5,2.7-4.1,5.1-3.4c2.7,0.8,2.8,3.3,2.3,4.9c-0.1,0.3-0.2,0.5-0.2,0.7L504.5,1268z
						 M509.2,1268.2c0.3-1,0.3-2.6-1.4-3c-1.5-0.4-2.6,0.8-3,1.8L509.2,1268.2z"/>
					<path class="st8" d="M513,1270.4c-0.5,2.1,0.5,3.3,2,3.7c1.1,0.3,1.8,0.3,2.4,0.2l0,1.2c-0.6,0.1-1.6,0.1-2.9-0.2
						c-2.5-0.7-3.6-2.8-2.9-5.3c0.7-2.5,2.7-4.1,5.1-3.4c2.7,0.8,2.8,3.3,2.3,4.9c-0.1,0.3-0.2,0.5-0.2,0.7L513,1270.4z
						 M517.7,1270.6c0.3-1,0.3-2.6-1.4-3c-1.5-0.4-2.6,0.8-3,1.8L517.7,1270.6z"/>
					<path class="st8" d="M524.3,1266.2l-0.6,2.4l2.1,0.6l-0.3,1.2l-2.1-0.6l-1.2,4.5c-0.3,1-0.1,1.7,0.7,1.9
						c0.4,0.1,0.7,0.1,0.9,0.1l-0.2,1.2c-0.3,0-0.8,0-1.4-0.2c-0.7-0.2-1.2-0.6-1.4-1.1c-0.3-0.6-0.3-1.3,0-2.3l1.2-4.5l-1.3-0.4
						l0.3-1.2l1.3,0.4l0.5-2L524.3,1266.2z"/>
					<path class="st8" d="M529.2,1277.2c0.6,0.6,1.4,1.2,2.4,1.5c1.5,0.4,2.6-0.1,2.9-1.3c0.3-1.1-0.2-1.9-1.5-2.9
						c-1.7-1.2-2.6-2.5-2.1-4.1c0.5-1.8,2.3-2.7,4.6-2.1c1.2,0.3,1.9,0.8,2.4,1.3l-0.7,1.1c-0.3-0.3-1-0.9-2-1.2
						c-1.6-0.4-2.4,0.3-2.6,1.1c-0.3,1.1,0.3,1.8,1.7,2.9c1.7,1.3,2.5,2.5,2,4.2c-0.5,1.8-2.2,3-4.9,2.2c-1.1-0.3-2.2-1-2.7-1.6
						L529.2,1277.2z"/>
					<path class="st8" d="M544.7,1277.6l-4.5-1.2l-1.1,4.2l5,1.4l-0.3,1.3l-6.4-1.8l3.1-11.6l6.2,1.7l-0.3,1.3l-4.7-1.3l-1,3.7
						l4.5,1.2L544.7,1277.6z"/>
				</g>
			</g>
			<g>
				<g class="st7">
					<path class="st8" d="M180,1359.7L180,1359.7l-2.2,0.5l0-1.2l2.8-0.6l1.3,0.4l-3,11.2l-1.4-0.4L180,1359.7z"/>
					<path class="st8" d="M183.7,1369.4c0.4,0.4,1.2,1.1,2.3,1.4c1.9,0.5,2.9-0.5,3.1-1.5c0.4-1.6-0.8-2.6-2.2-3l-0.8-0.2l0.3-1.1
						l0.8,0.2c1.1,0.3,2.6,0.1,3-1.2c0.2-0.9-0.1-1.8-1.5-2.2c-0.9-0.2-1.8-0.1-2.4,0.1l-0.1-1.2c0.7-0.3,1.9-0.4,3.1-0.1
						c2.2,0.6,2.8,2.2,2.4,3.6c-0.3,1.2-1.3,1.9-2.8,2.1l0,0c1.3,0.7,2.1,2,1.7,3.6c-0.5,1.8-2.3,3-4.9,2.2c-1.2-0.3-2.2-1-2.7-1.6
						L183.7,1369.4z"/>
				</g>
				<g class="st7">
					<path class="st8" d="M196,1372.8c0.6,0.6,1.4,1.2,2.4,1.5c1.5,0.4,2.6-0.1,2.9-1.3c0.3-1.1-0.2-1.9-1.5-2.9
						c-1.7-1.2-2.6-2.5-2.1-4.1c0.5-1.8,2.3-2.7,4.6-2.1c1.2,0.3,1.9,0.8,2.4,1.3l-0.7,1.1c-0.3-0.3-1-0.9-2-1.2
						c-1.6-0.4-2.4,0.3-2.6,1.1c-0.3,1.1,0.3,1.8,1.7,2.9c1.7,1.3,2.5,2.5,2,4.2c-0.5,1.8-2.2,3-4.9,2.2c-1.1-0.3-2.2-1-2.7-1.6
						L196,1372.8z"/>
				</g>
				<g class="st7">
					<path class="st8" d="M208.7,1366.7l-0.6,2.4l2.1,0.6l-0.3,1.2l-2.1-0.6l-1.2,4.5c-0.3,1-0.1,1.7,0.7,1.9
						c0.4,0.1,0.7,0.1,0.9,0.1l-0.2,1.2c-0.3,0-0.8,0-1.4-0.2c-0.7-0.2-1.2-0.6-1.4-1.1c-0.3-0.6-0.3-1.3,0-2.3l1.2-4.5l-1.3-0.4
						l0.3-1.2l1.3,0.4l0.5-2L208.7,1366.7z"/>
				</g>
				<g class="st7">
					<path class="st8" d="M211.2,1372.8c0.3-1,0.5-1.8,0.6-2.6l1.3,0.4l-0.4,1.7l0.1,0c0.7-1,1.8-1.5,2.8-1.2c0.2,0,0.3,0.1,0.4,0.2
						l-0.4,1.4c-0.1-0.1-0.3-0.1-0.5-0.2c-1.1-0.3-2,0.3-2.5,1.4c-0.1,0.2-0.2,0.4-0.3,0.7l-1.2,4.4l-1.5-0.4L211.2,1372.8z"/>
				</g>
				<g class="st7">
					<path class="st8" d="M216.9,1376.4c-0.5,2.1,0.5,3.3,2,3.7c1.1,0.3,1.8,0.3,2.4,0.2l0,1.2c-0.6,0.1-1.6,0.1-2.9-0.2
						c-2.5-0.7-3.6-2.8-2.9-5.3c0.7-2.5,2.7-4.1,5.1-3.4c2.7,0.8,2.8,3.3,2.3,4.9c-0.1,0.3-0.2,0.5-0.2,0.7L216.9,1376.4z
						 M221.6,1376.5c0.3-1,0.3-2.6-1.4-3c-1.5-0.4-2.6,0.8-3,1.8L221.6,1376.5z"/>
					<path class="st8" d="M225.4,1378.8c-0.5,2.1,0.5,3.3,2,3.7c1.1,0.3,1.8,0.3,2.4,0.2l0,1.2c-0.6,0.1-1.6,0.1-2.9-0.2
						c-2.5-0.7-3.6-2.8-2.9-5.3c0.7-2.5,2.7-4.1,5.1-3.4c2.7,0.8,2.8,3.3,2.3,4.9c-0.1,0.3-0.2,0.5-0.2,0.7L225.4,1378.8z
						 M230.1,1378.9c0.3-1,0.3-2.6-1.4-3c-1.5-0.4-2.6,0.8-3,1.8L230.1,1378.9z"/>
					<path class="st8" d="M236.8,1374.6l-0.6,2.4l2.1,0.6l-0.3,1.2l-2.1-0.6l-1.2,4.5c-0.3,1-0.1,1.7,0.7,1.9
						c0.4,0.1,0.7,0.1,0.9,0.1l-0.2,1.2c-0.3,0-0.8,0-1.4-0.2c-0.7-0.2-1.2-0.6-1.4-1.1c-0.3-0.6-0.3-1.3,0-2.3l1.2-4.5l-1.3-0.4
						l0.3-1.2l1.3,0.4l0.5-2L236.8,1374.6z"/>
					<path class="st8" d="M241.7,1385.5c0.6,0.6,1.4,1.2,2.4,1.5c1.5,0.4,2.6-0.1,2.9-1.3c0.3-1.1-0.2-1.9-1.5-2.9
						c-1.7-1.2-2.6-2.5-2.1-4.1c0.5-1.8,2.3-2.7,4.6-2.1c1.2,0.3,1.9,0.8,2.4,1.3l-0.7,1.1c-0.3-0.3-1-0.9-2-1.2
						c-1.6-0.4-2.4,0.3-2.6,1.1c-0.3,1.1,0.3,1.8,1.7,2.9c1.7,1.3,2.5,2.5,2,4.2c-0.5,1.8-2.2,3-4.9,2.2c-1.1-0.3-2.2-1-2.7-1.6
						L241.7,1385.5z"/>
					<path class="st8" d="M257.2,1385.9l-4.5-1.2l-1.1,4.2l5,1.4l-0.3,1.3l-6.4-1.8l3.1-11.6l6.2,1.7l-0.3,1.3l-4.7-1.3l-1,3.7
						l4.5,1.2L257.2,1385.9z"/>
				</g>
			</g>
			<g class="st7">
				<path class="st8" d="M742.8,1694.8L742.8,1694.8l0.6-2.2l1.1,0.6l-0.7,2.8l-0.9,1l-8.3-8l1-1.1L742.8,1694.8z"/>
				<path class="st8" d="M734.3,1704.1l3-3.2l-1.8-2.4c-0.2,0.2-0.3,0.4-0.6,0.7c-0.6,0.6-1.3,1.2-2.1,1.4c-1,0.3-2.2,0.2-3.3-0.9
					c-1.6-1.6-1.6-4,0.1-5.9c0.9-0.9,1.8-1.5,2.5-1.6l0.6,1.1c-0.5,0.2-1.4,0.6-2.1,1.4c-1,1.1-1.2,2.7-0.1,3.7c1.1,1,2.5,1,4.1-0.6
					c0.4-0.5,0.7-0.9,1-1.3l3.5,4.4l-3.8,4L734.3,1704.1z"/>
			</g>
			<g class="st7">
				<path class="st8" d="M724,1703c-0.8,0.2-1.7,0.7-2.4,1.5c-1.1,1.2-1.1,2.4-0.2,3.2c0.8,0.8,1.7,0.8,3.2,0c1.8-0.9,3.4-1.1,4.6,0
					c1.3,1.3,1.3,3.4-0.3,5.1c-0.8,0.9-1.6,1.3-2.2,1.5l-0.6-1.2c0.4-0.1,1.2-0.5,2-1.3c1.1-1.2,0.8-2.3,0.2-2.9
					c-0.8-0.8-1.7-0.6-3.3,0.1c-1.9,0.9-3.3,1-4.6-0.2c-1.3-1.3-1.5-3.4,0.4-5.4c0.8-0.8,1.9-1.5,2.6-1.7L724,1703z"/>
			</g>
			<g class="st7">
				<path class="st8" d="M723.3,1717.1l-1.8-1.7l-1.5,1.6l-0.9-0.8l1.5-1.6l-3.3-3.2c-0.8-0.7-1.4-0.9-2-0.3
					c-0.3,0.3-0.4,0.6-0.5,0.7l-0.9-0.8c0.1-0.3,0.4-0.7,0.8-1.2c0.5-0.5,1.1-0.8,1.6-0.8c0.6,0,1.3,0.4,2,1.1l3.4,3.2l0.9-1
					l0.9,0.8l-0.9,1l1.5,1.4L723.3,1717.1z"/>
			</g>
			<g class="st7">
				<path class="st8" d="M716.9,1716.5c0.7,0.7,1.4,1.3,2,1.8l-0.9,1l-1.2-1.1l0,0.1c0.6,1.1,0.4,2.3-0.3,3
					c-0.1,0.1-0.2,0.2-0.3,0.3l-1.1-1c0.1-0.1,0.3-0.2,0.4-0.4c0.8-0.8,0.7-2,0-2.9c-0.1-0.2-0.3-0.4-0.5-0.6l-3.3-3.2l1.1-1.1
					L716.9,1716.5z"/>
			</g>
			<g class="st7">
				<path class="st8" d="M711.1,1719.9c-1.5-1.4-3.1-1.1-4.1,0.1c-0.8,0.8-1.1,1.4-1.3,2l-1-0.6c0.2-0.6,0.6-1.5,1.6-2.5
					c1.8-1.9,4.1-1.9,6-0.1c1.9,1.8,2.3,4.3,0.6,6.1c-1.9,2-4.2,0.9-5.3-0.2c-0.2-0.2-0.4-0.4-0.5-0.5L711.1,1719.9z M708.8,1724
					c0.7,0.7,2.1,1.5,3.3,0.2c1.1-1.2,0.5-2.7-0.2-3.5L708.8,1724z"/>
				<path class="st8" d="M705,1726.4c-1.5-1.4-3.1-1.1-4.1,0.1c-0.8,0.8-1.1,1.4-1.3,2l-1-0.6c0.2-0.6,0.6-1.5,1.6-2.5
					c1.8-1.9,4.1-1.9,6-0.1c1.9,1.8,2.3,4.3,0.6,6.1c-1.9,2-4.2,0.9-5.3-0.2c-0.2-0.2-0.4-0.4-0.5-0.5L705,1726.4z M702.7,1730.5
					c0.7,0.7,2.1,1.5,3.3,0.2c1.1-1.2,0.5-2.7-0.2-3.5L702.7,1730.5z"/>
				<path class="st8" d="M703.3,1738.5l-1.8-1.7l-1.5,1.6l-0.9-0.8l1.5-1.6l-3.3-3.2c-0.8-0.7-1.4-0.9-2-0.3
					c-0.3,0.3-0.4,0.6-0.5,0.7l-0.9-0.8c0.1-0.3,0.4-0.7,0.8-1.2c0.5-0.5,1.1-0.8,1.6-0.8c0.6,0,1.3,0.4,2,1.1l3.4,3.2l0.9-1
					l0.9,0.8l-0.9,1l1.5,1.4L703.3,1738.5z"/>
				<path class="st8" d="M691.6,1737.7c-0.8,0.2-1.7,0.7-2.4,1.5c-1.1,1.2-1.1,2.4-0.2,3.2c0.8,0.8,1.7,0.8,3.2,0
					c1.8-0.9,3.4-1.1,4.6,0c1.3,1.3,1.3,3.4-0.3,5.1c-0.8,0.9-1.6,1.3-2.2,1.5l-0.6-1.2c0.4-0.1,1.2-0.5,2-1.3
					c1.1-1.2,0.8-2.3,0.2-2.9c-0.8-0.8-1.7-0.6-3.3,0.1c-1.9,0.9-3.3,1-4.6-0.2c-1.3-1.3-1.5-3.4,0.4-5.4c0.8-0.8,1.9-1.5,2.6-1.7
					L691.6,1737.7z"/>
				<path class="st8" d="M683.9,1751.3l3.2-3.4l-3.1-3l-3.5,3.8l-0.9-0.9l4.6-4.9l8.6,8.3l-4.4,4.7l-0.9-0.9l3.4-3.6l-2.7-2.6
					l-3.2,3.4L683.9,1751.3z"/>
			</g>
		</g>
	</g>
	<g class="st7">
		<path class="st8" d="M1030.5,613.4c-0.6-1.2-1.2-3.7-1.2-6.9c0-7.4,4.7-13,13.3-13c8.2,0,13.8,5.6,13.8,13.7
			c0,3.3-0.7,5.3-1.2,6.2l-2.8-0.8c0.6-1.3,1.1-3.1,1.1-5.3c0-6.2-3.9-10.3-10.8-10.3c-6.4,0-10.6,3.7-10.6,10.1
			c0,2.1,0.4,4.2,1.1,5.5L1030.5,613.4z"/>
	</g>
	<g class="st7">
		<path class="st8" d="M1029.6,627.7l2.4-0.3v-0.1c-1.5-1.1-2.8-3.1-2.8-5.8c0-3.8,2.7-5.8,5.4-5.8c4.6,0,7.1,4.1,7,11.3h0.4
			c1.6,0,4.4-0.4,4.4-4.3c0-1.8-0.5-3.6-1.4-4.9l2.3-0.8c1,1.6,1.7,3.8,1.7,6.2c0,5.8-3.9,7.2-7.7,7.2h-7.1c-1.6,0-3.2,0.1-4.5,0.3
			V627.7z M1039.3,627.2c0.1-3.7-0.6-8-4.3-8c-2.2,0-3.3,1.5-3.3,3.2c0,2.5,1.6,4,3.2,4.6c0.4,0.1,0.7,0.2,1.1,0.2H1039.3z"/>
		<path class="st8" d="M1057.3,636.1v3.4h-27.7v-3.4H1057.3z"/>
		<path class="st8" d="M1048.5,661.6c-1.4-0.1-2.9-0.2-5.2-0.2h-11c-4.3,0-7-0.9-8.6-2.7c-1.7-1.8-2.3-4.5-2.3-6.9
			c0-2.3,0.5-4.8,1.6-6.3l2.6,0.9c-0.8,1.2-1.5,3.2-1.5,5.5c0,3.5,1.8,6.1,6.6,6.1h2.1V658c-1.8-1.1-3.2-3.1-3.2-6c0-4.7,4-8,9.2-8
			c6.4,0,10,4.2,10,8.5c0,3.3-1.7,5.1-3.3,5.9v0.1l2.8,0.2V661.6z M1041,658c0.6,0,1.1,0,1.6-0.2c2-0.6,3.6-2.3,3.6-4.8
			c0-3.3-2.8-5.6-7.1-5.6c-3.7,0-6.8,1.9-6.8,5.6c0,2.1,1.3,4,3.5,4.8c0.6,0.2,1.2,0.3,1.8,0.3H1041z"/>
		<path class="st8" d="M1029.6,677.6l2.4-0.3v-0.1c-1.5-1.1-2.8-3.1-2.8-5.8c0-3.8,2.7-5.8,5.4-5.8c4.6,0,7.1,4.1,7,11.3h0.4
			c1.6,0,4.4-0.4,4.4-4.3c0-1.8-0.5-3.6-1.4-4.9l2.3-0.8c1,1.6,1.7,3.8,1.7,6.2c0,5.8-3.9,7.2-7.7,7.2h-7.1c-1.6,0-3.2,0.1-4.5,0.3
			V677.6z M1039.3,677c0.1-3.7-0.6-8-4.3-8c-2.2,0-3.3,1.5-3.3,3.2c0,2.5,1.6,4,3.2,4.6c0.4,0.1,0.7,0.2,1.1,0.2H1039.3z"/>
	</g>
	<g class="st7">
		<path class="st8" d="M1042.6,685.9c2.2,0,4.1,0,5.9-0.2v3l-3.7,0.1v0.2c2.5,0.9,4.1,2.9,4.1,5.2c0,0.4,0,0.7-0.1,1h-3.2
			c0.1-0.4,0.1-0.7,0.1-1.2c0-2.4-1.8-4.1-4.4-4.6c-0.5-0.1-1-0.2-1.6-0.2h-10.1v-3.4H1042.6z"/>
	</g>
	<g class="st7">
		<path class="st8" d="M1048.5,700.9l-11.2,4.1c-1.2,0.4-2.7,0.9-3.9,1.2v0.1c1.1,0.4,2.6,0.7,3.9,1.2l11.1,3.7v3.6l-13.5-5.1
			c-6.5-2.5-9.8-4.1-11.8-6.5c-1.5-1.7-2.1-3.4-2.2-4.2l2.9-0.9c0.3,0.9,0.8,2,1.7,3c0.7,0.9,2.1,2.1,3.8,2.9
			c0.4,0.2,0.6,0.3,0.8,0.3s0.5-0.1,0.9-0.2l17.4-7V700.9z"/>
	</g>
	<g class="st7">
		<path class="st8" d="M1031.6,724.6l21.3,14.6h0.1v-13.3h2.8v17.7h-2.1l-21.3-14.5h-0.1v14.7h-2.8v-19.2H1031.6z"/>
	</g>
	<g class="st7">
		<path class="st8" d="M1039.2,764.4c-7,0-10-4.8-10-9.4c0-5.1,3.7-9,9.7-9c6.3,0,10,4.1,10,9.4
			C1048.9,760.8,1045,764.4,1039.2,764.4z M1039,749.5c-4.1,0-7.3,2.4-7.3,5.7c0,3.3,3.1,5.7,7.3,5.7c3.2,0,7.3-1.6,7.3-5.7
			C1046.4,751.2,1042.6,749.5,1039,749.5z"/>
		<path class="st8" d="M1039.2,785.9c-7,0-10-4.8-10-9.4c0-5.1,3.7-9,9.7-9c6.3,0,10,4.1,10,9.4
			C1048.9,782.2,1045,785.9,1039.2,785.9z M1039,770.9c-4.1,0-7.3,2.4-7.3,5.7c0,3.3,3.1,5.7,7.3,5.7c3.2,0,7.3-1.6,7.3-5.7
			C1046.4,772.6,1042.6,770.9,1039,770.9z"/>
	</g>
	<g class="st7">
		<path class="st8" d="M50.2,197.2l-10.1-1.5l-1.4,9.4l11.3,1.7l-0.4,2.8l-14.6-2.2l4-26l14,2.2l-0.4,2.8l-10.7-1.6l-1.3,8.2
			l10.1,1.5L50.2,197.2z"/>
		<path class="st8" d="M57.9,182.8l3.4,0.5l-4.2,27.4l-3.4-0.5L57.9,182.8z"/>
		<path class="st8" d="M62.7,211.6c0.3-1.3,0.6-3.1,0.9-4.8l3.5-22.6l3.4,0.5l-1.8,11.7l0.1,0c1.5-1.9,3.9-2.9,6.9-2.5
			c4.6,0.7,7.3,5.1,6.4,10.7c-1,6.7-5.7,9.3-9.9,8.7c-2.7-0.4-4.7-1.8-5.7-4.5l-0.1,0l-0.6,3.1L62.7,211.6z M67.3,204.6
			c-0.1,0.4-0.1,0.9,0,1.3c0.3,2.5,2,4.4,4.5,4.8c3.5,0.5,6.1-2,6.8-6.3c0.6-3.7-0.9-7.2-4.5-7.8c-2.3-0.4-4.7,0.9-5.8,3.4
			c-0.1,0.4-0.3,0.8-0.4,1.4L67.3,204.6z"/>
	</g>
	<g class="st7">
		<path class="st8" d="M103.1,208.1c-1.1,6.9-6.3,9.2-10.8,8.5c-5-0.8-8.4-5.1-7.5-11c1-6.2,5.6-9.3,10.8-8.5
			C100.9,197.9,104,202.4,103.1,208.1z M88.3,206c-0.6,4.1,1.3,7.5,4.6,8c3.2,0.5,6.1-2.2,6.8-6.4c0.5-3.2-0.5-7.4-4.5-8
			C91.1,199,88.8,202.4,88.3,206z"/>
	</g>
	<g class="st7">
		<path class="st8" d="M109.9,199.7l1,9.9c0.2,2.2,0.4,4.2,0.5,6.1l0.1,0c0.7-1.8,1.6-3.7,2.6-5.6l4.5-9.1l2.9,0.4l1.5,9.8
			c0.4,2.3,0.6,4.4,0.7,6.3l0.1,0c0.6-1.8,1.4-3.7,2.4-5.8l4.1-9l3.4,0.5l-8.9,17.7l-3.1-0.5l-1.5-9.3c-0.3-2.2-0.6-4.1-0.7-6.4
			l-0.1,0c-0.8,2.2-1.7,4-2.6,5.9l-4.4,8.4l-3.1-0.5l-2.8-19.5L109.9,199.7z"/>
	</g>
	<g class="st7">
		<path class="st8" d="M146.2,198.1c1.7-0.1,4.2,0.1,6.5,0.4c3.6,0.5,5.8,1.6,7.2,3.3c1.1,1.4,1.6,3.2,1.3,5.2
			c-0.5,3.4-3,5.4-5.9,5.9l0,0.1c1.9,1,2.8,3,3,5.8c0.3,3.8,0.5,6.4,0.9,7.4l-3.5-0.5c-0.3-0.8-0.5-3.1-0.8-6.5
			c-0.2-3.7-1.4-5.3-4.4-5.8l-3.2-0.5l-1.7,11.3l-3.4-0.5L146.2,198.1z M147.8,210.5l3.4,0.5c3.6,0.5,6.2-1.1,6.6-4
			c0.5-3.4-1.7-5.2-5.2-5.8c-1.6-0.2-2.8-0.3-3.4-0.2L147.8,210.5z"/>
	</g>
	<g class="st7">
		<path class="st8" d="M163.3,227l2.9-18.7l3.4,0.5l-2.9,18.7L163.3,227z M170.8,203.7c-0.1,1.2-1.1,2-2.5,1.8
			c-1.2-0.2-1.9-1.2-1.7-2.4c0.2-1.2,1.2-2,2.4-1.8C170.3,201.4,170.9,202.5,170.8,203.7z"/>
	</g>
	<g class="st7">
		<path class="st8" d="M176.5,209.9l2.1,11c0.4,1.8,0.6,3.4,0.8,5l0.1,0c0.7-1.5,1.4-2.9,2.3-4.5l5.2-9.9l3.5,0.5l-10.2,17.5
			l-3.2-0.5l-4.2-19.7L176.5,209.9z"/>
	</g>
	<g class="st7">
		<path class="st8" d="M193.7,222.7c-0.6,4.6,2,6.9,5.4,7.5c2.4,0.4,4,0.2,5.3-0.2l0.2,2.5c-1.3,0.4-3.4,0.7-6.4,0.2
			c-5.7-0.9-8.6-5.2-7.7-10.8c0.9-5.6,4.9-9.6,10.3-8.7c6.1,0.9,6.9,6.5,6.4,10c-0.1,0.7-0.3,1.2-0.4,1.6L193.7,222.7z M204,221.8
			c0.4-2.2,0-5.6-3.9-6.2c-3.4-0.5-5.4,2.4-6,4.7L204,221.8z"/>
		<path class="st8" d="M211.8,221.3c0.3-2.2,0.6-4.1,0.7-5.8l3,0.5l-0.4,3.7l0.2,0c1.2-2.4,3.5-3.6,5.8-3.3c0.4,0.1,0.6,0.1,0.9,0.3
			l-0.5,3.2c-0.3-0.1-0.7-0.2-1.1-0.3c-2.4-0.4-4.4,1.2-5.2,3.7c-0.1,0.4-0.3,1-0.4,1.6l-1.5,9.9l-3.4-0.5L211.8,221.3z"/>
	</g>
</g>
<g id="zoo">
	<path id="zoo-2" class="st9" d="M1011.2,715.2V778c0,6.6-5.4,12-12,12h-10.1c-6.6,0-12-5.4-12-12v-62.8c0-6.6,5.4-12,12-12h10.1
		C1005.8,703.2,1011.2,708.6,1011.2,715.2z"/>
</g>
<g id="hunt">
	<path id="hunt-2" class="st10" d="M416,478.8l2.8-12.3c1.4-6.1,7.3-10,13.3-8.6l12.2,2.9c5.9,1.4,9.7,7.6,8.3,13.7l-2.8,12.3
		c-1.4,6.1-7.3,10-13.3,8.6l-12.2-2.9C418.4,491.1,414.7,484.9,416,478.8z"/>
</g>
<g id="fort">
	<path id="fort-2" class="st10" d="M435.1,215.3l25.7-97.6c1.6-6.1,7.7-9.7,13.6-8l93.7,26.4c5.9,1.7,9.4,8,7.8,14.1l-25.7,97.6
		c-1.6,6.1-7.7,9.7-13.6,8l-93.7-26.4C437,227.7,433.5,221.3,435.1,215.3z"/>
</g>
<g id="dean">
	<path id="dean-2" class="st10" d="M318.5,457.5l9.6-42.7c1.4-6.1,7.3-10,13.3-8.6l41.3,9.9c5.9,1.4,9.7,7.6,8.3,13.7l-9.6,42.7
		c-1.4,6.1-7.3,10-13.3,8.6l-41.3-9.9C320.9,469.8,317.2,463.6,318.5,457.5z"/>
</g>
<g id="hound">
	<path id="hound-2" class="st10" d="M213.6,941.9l11.2-42.3c1.6-6.1,7.7-9.7,13.6-8l40.9,11.5c5.9,1.7,9.4,8,7.8,14l-11.2,42.3
		c-1.6,6.1-7.7,9.7-13.6,8l-40.9-11.5C215.5,954.2,212,947.9,213.6,941.9z"/>
</g>
<g id="blue">
	<path id="blue-2" class="st10" d="M461.7,1356.9l-3.7,16.2c-1.4,6.1-7.4,9.9-13.3,8.5l-15.4-3.8c-5.9-1.4-9.6-7.7-8.2-13.8
		l3.7-16.2c1.4-6.1,7.4-9.9,13.3-8.5l15.4,3.8C459.4,1344.6,463.1,1350.8,461.7,1356.9z"/>
</g>
<g id="rouge">
	<path id="rouge-2" class="st10" d="M463.4,1190.8l6.8-25.7c1.6-6.1,7.7-9.7,13.6-8l65.2,18.4c5.9,1.7,9.4,8,7.8,14.1l-6.8,25.7
		c-1.6,6.1-7.7,9.7-13.6,8l-65.2-18.4C465.2,1203.1,461.8,1196.8,463.4,1190.8z"/>
</g>
<g id="suitor">
	<path id="suitor-2" class="st10" d="M536.3,872.2l3.2-14c1.4-6.1,7.3-10,13.3-8.6l26.1,6.3c5.9,1.4,9.6,7.6,8.3,13.7l-3.1,14
		c-1.4,6.1-7.4,10-13.3,8.6l-26.1-6.3C538.6,884.5,534.9,878.3,536.3,872.2z"/>
</g>
</svg>
